# xmcd
#
# Track frame offsets: 
#        150
#        17218
#        32268
#        51383
#        64658
#        78255
#        101018
#        117105
#        135198
#        152345
#        168558
#        185983
#        202868
#        213728
#        238900
#
# Disc length: 3574 seconds
#
# Revision: 3
# Processed by: cddbd v1.5.1PL0 Copyright (c) Steve Scherf et al.
# Submitted via: ExactAudioCopy v0.90b4
#
DISCID=c70df40f
DTITLE=Angela Strehli Band - Soul Shake
DYEAR=1991
DGENRE=blues
TTITLE0=I Wouldn't Treat A Dog
TTITLE1=Your Sweetness
TTITLE2=Be Bop Man
TTITLE3=It Hurts Me Too
TTITLE4=Take It From Me
TTITLE5=Mean Mistreater
TTITLE6=Soul Shake
TTITLE7=20% Alcohol
TTITLE8=Tough Times
TTITLE9=Back In My Arms
TTITLE10=In Spite Of What You Do
TTITLE11=Bigtown Playboy
TTITLE12=Voodoo
TTITLE13=Stranger Blues
TTITLE14=Wang Dang Doodle
EXTD=
EXTT0=
EXTT1=
EXTT2=
EXTT3=
EXTT4=
EXTT5=
EXTT6=
EXTT7=
EXTT8=
EXTT9=
EXTT10=
EXTT11=
EXTT12=
EXTT13=
EXTT14=
PLAYORDER=
